<svg xmlns="http://www.w3.org/2000/svg" viewBox="-98.4 -158 193.4 318" fill="none">
  <!-- Generated by tools/export-svg.js from src/pack.html. Do not edit by hand. -->
  <path d="M -86.72 -92.94 Q -87.61 -108.21 -72.23 -108.98 Q -56.85 -109.74 -44.66 -109.11 Q -32.48 -108.47 -17.74 -107.15 Q -2.99 -105.82 13.5 -107.74 Q 29.99 -109.66 45.33 -105.56 Q 60.67 -101.47 71.33 -104.34 Q 81.99 -107.21 84.54 -95.31 Q 87.09 -83.4 84.53 -69.11 Q 81.98 -54.82 83.45 -40.39 Q 84.92 -25.97 86.6 -11.98 Q 88.29 2 88.05 12.53 Q 87.81 23.07 86.13 40.1 Q 84.44 57.14 84.53 70.15 Q 84.62 83.15 86.62 94.82 Q 88.63 106.5 72.96 106.69 Q 57.3 106.89 45.01 106.7 Q 32.72 106.52 15.75 104.65 Q -1.21 102.79 -15.76 103.07 Q -30.31 103.36 -42.97 103.37 Q -55.63 103.39 -71.88 101.93 Q -88.13 100.47 -86.11 89.01 Q -84.1 77.54 -82.56 64.31 Q -81.03 51.08 -81.17 40.96 Q -81.31 30.85 -83.39 14.21 Q -85.48 -2.43 -85.76 -14.1 Q -86.04 -25.77 -84.59 -41.08 Q -83.13 -56.39 -84.48 -67.03 Q -85.84 -77.67 -86.72 -92.94 Z" transform="matrix(1 0 0 1 -3.24 -1.17)" fill="#9FB6C6"/>
  <path d="M -86 -91.59 Q -84.17 -106.12 -71.16 -105.28 Q -58.16 -104.45 -42.61 -104.52 Q -27.07 -104.59 -14.77 -105.66 Q -2.48 -106.74 13.2 -107.46 Q 28.88 -108.18 41.91 -107.4 Q 54.94 -106.63 68.77 -105.6 Q 82.61 -104.57 83.89 -93.19 Q 85.17 -81.81 83.85 -66.51 Q 82.54 -51.2 83.61 -38.57 Q 84.68 -25.94 83.93 -11.98 Q 83.17 1.97 85.13 14.49 Q 87.08 27 85.1 41.18 Q 83.13 55.37 84.64 68.18 Q 86.16 80.99 87.1 94.33 Q 88.04 107.66 73.15 105.56 Q 58.26 103.46 44.55 105.21 Q 30.83 106.96 15.09 105.22 Q -0.66 103.48 -15.85 105.66 Q -31.05 107.85 -43.57 106.83 Q -56.09 105.8 -70.56 103.93 Q -85.03 102.06 -83.91 91.44 Q -82.8 80.81 -84.18 67.29 Q -85.56 53.77 -85.51 38.54 Q -85.45 23.31 -84.73 11.83 Q -84 0.36 -84.77 -13.64 Q -85.54 -27.63 -85.08 -41.02 Q -84.62 -54.42 -86.22 -65.74 Q -87.83 -77.06 -86 -91.59 Z" transform="matrix(1 0 0 1 0 0)" fill="none" stroke="#33241B" stroke-width="10" stroke-linejoin="round" stroke-linecap="round"/>
  <path d="M -66.84 -64.05 Q -67.48 -76.46 -55.66 -76.45 Q -43.83 -76.44 -31.32 -72.48 Q -18.8 -68.51 -8.08 -69.13 Q 2.64 -69.75 14.28 -68.95 Q 25.92 -68.16 35.88 -69.29 Q 45.85 -70.42 52.65 -69.78 Q 59.46 -69.14 61.96 -57.42 Q 64.46 -45.69 63 -34.54 Q 61.53 -23.4 51.42 -27.64 Q 41.31 -31.87 30.47 -31.04 Q 19.64 -30.21 8.09 -30.42 Q -3.45 -30.62 -13.63 -30.15 Q -23.8 -29.68 -31.62 -29.95 Q -39.45 -30.22 -50.43 -26.93 Q -61.41 -23.65 -63.8 -37.64 Q -66.19 -51.64 -66.84 -64.05 Z" transform="matrix(1 0 0 1 3.63 0.36)" fill="#E9F2F7"/>
  <path d="M -63.29 -58.17 Q -60.92 -68.82 -51.04 -69.32 Q -41.16 -69.81 -32.81 -71.04 Q -24.46 -72.26 -11.3 -71.36 Q 1.85 -70.47 12.08 -70.56 Q 22.32 -70.66 31.11 -71.43 Q 39.91 -72.21 52.68 -72.88 Q 65.46 -73.54 63.68 -61.1 Q 61.91 -48.65 62.85 -39.1 Q 63.79 -29.54 53.43 -29.54 Q 43.06 -29.53 33.71 -30.25 Q 24.36 -30.97 10.72 -28.82 Q -2.93 -26.66 -12.85 -28.63 Q -22.78 -30.6 -31.84 -30.65 Q -40.89 -30.7 -52.25 -30.31 Q -63.61 -29.91 -64.64 -38.71 Q -65.66 -47.51 -63.29 -58.17 Z" transform="matrix(1 0 0 1 0 0)" fill="none" stroke="#33241B" stroke-width="6" stroke-linejoin="round" stroke-linecap="round"/>
  <path d="M 47.54 -53.73 Q 46.65 -50.96 46.38 -47.28 Q 46.12 -43.59 41.22 -42.67 Q 36.32 -41.74 37.12 -43.77 Q 37.91 -45.8 32.15 -45.9 Q 26.39 -45.99 30.88 -47.25 Q 35.37 -48.52 32.95 -54.98 Q 30.54 -61.44 37.26 -62.08 Q 43.98 -62.73 46.2 -59.61 Q 48.43 -56.5 47.54 -53.73 Z" transform="matrix(1 0 0 1 -5.31 -3.75)" fill="#6DD47E"/>
  <path d="M 45.93 -53.46 Q 47.49 -48.16 47.74 -47.13 Q 47.99 -46.1 44.8 -42.14 Q 41.6 -38.17 37.41 -41.71 Q 33.23 -45.24 30.94 -46.07 Q 28.65 -46.9 28.33 -49.81 Q 28.01 -52.72 32.16 -55.6 Q 36.31 -58.48 37.06 -58.66 Q 37.8 -58.83 41.09 -58.8 Q 44.38 -58.77 45.93 -53.46 Z" transform="matrix(1 0 0 1 0 0)" fill="none" stroke="#33241B" stroke-width="5" stroke-linejoin="round" stroke-linecap="round"/>
  <path d="M -46.71 -49.79 L 10.31 -49.38" transform="matrix(1 0 0 1 0 0)" fill="none" stroke="#33241B" stroke-width="5" stroke-linejoin="round" stroke-linecap="round"/>
  <path d="M -61.34 2.97 Q -62.99 -9.15 -52.33 -6.41 Q -41.67 -3.66 -30.13 -3.57 Q -18.59 -3.48 -10.55 -3.47 Q -2.51 -3.45 8.81 -4.5 Q 20.14 -5.54 32.04 -6.56 Q 43.93 -7.57 55.66 -8.71 Q 67.38 -9.86 67.55 1.95 Q 67.71 13.76 67.81 28.03 Q 67.91 42.29 53.94 38.93 Q 39.98 35.57 31.3 37.37 Q 22.62 39.16 13.61 40.26 Q 4.6 41.36 -10.12 38.26 Q -24.84 35.16 -34.67 35.18 Q -44.51 35.21 -55.02 34.28 Q -65.52 33.35 -62.61 24.22 Q -59.69 15.09 -61.34 2.97 Z" transform="matrix(1 0 0 1 -4.91 -2.13)" fill="#E9F2F7"/>
  <path d="M -63.56 5.21 Q -65.93 -8 -52.89 -8.38 Q -39.86 -8.75 -29.16 -8.06 Q -18.45 -7.37 -7.73 -6.03 Q 2.99 -4.69 11.89 -6.42 Q 20.79 -8.16 31.92 -6.58 Q 43.06 -5.01 52.57 -6.06 Q 62.08 -7.1 63.84 5.88 Q 65.59 18.87 66.2 29.01 Q 66.81 39.15 53.34 37.17 Q 39.87 35.2 31.06 37.3 Q 22.26 39.41 10.44 38.28 Q -1.37 37.15 -9.93 37.94 Q -18.49 38.73 -29.39 39.36 Q -40.29 40 -51.75 39.96 Q -63.21 39.93 -62.2 29.17 Q -61.2 18.42 -63.56 5.21 Z" transform="matrix(1 0 0 1 0 0)" fill="none" stroke="#33241B" stroke-width="6" stroke-linejoin="round" stroke-linecap="round"/>
  <path d="M 47.42 12.63 Q 47.07 15.04 43.78 16.39 Q 40.49 17.75 39.71 20.72 Q 38.94 23.68 36.67 23.67 Q 34.41 23.66 33.79 21.99 Q 33.18 20.33 29.39 15.4 Q 25.6 10.46 29.82 6.96 Q 34.04 3.46 37.66 4.22 Q 41.28 4.97 44.53 7.6 Q 47.77 10.22 47.42 12.63 Z" transform="matrix(1 0 0 1 -0.62 1.76)" fill="#FF6B6B"/>
  <path d="M 45.94 11.74 Q 44.5 15.26 43.31 18.87 Q 42.11 22.48 41.61 22.45 Q 41.11 22.42 37.7 24.49 Q 34.29 26.57 31.19 23.82 Q 28.09 21.07 29.56 17.16 Q 31.03 13.26 31.84 9.68 Q 32.65 6.1 37.23 7.09 Q 41.81 8.08 44.6 8.15 Q 47.38 8.23 45.94 11.74 Z" transform="matrix(1 0 0 1 0 0)" fill="none" stroke="#33241B" stroke-width="5" stroke-linejoin="round" stroke-linecap="round"/>
  <path d="M -46.43 15.22 L 11.21 16.26" transform="matrix(1 0 0 1 0 0)" fill="none" stroke="#33241B" stroke-width="5" stroke-linejoin="round" stroke-linecap="round"/>
  <path d="M -64.88 71.98 Q -64.61 62.56 -52.37 63.42 Q -40.14 64.29 -28.93 63.11 Q -17.71 61.93 -9.65 58.91 Q -1.59 55.89 11.78 57.15 Q 25.15 58.42 33.47 61.47 Q 41.8 64.51 51.51 62.16 Q 61.21 59.82 62.85 70.11 Q 64.48 80.4 62.22 92.08 Q 59.95 103.76 49.22 101.83 Q 38.49 99.91 27.57 104.25 Q 16.64 108.59 6.62 108.01 Q -3.39 107.44 -11.94 107.44 Q -20.49 107.44 -31.67 105.7 Q -42.86 103.95 -52.69 103.23 Q -62.51 102.5 -63.84 91.96 Q -65.16 81.41 -64.88 71.98 Z" transform="matrix(1 0 0 1 0.7 -0.39)" fill="#E9F2F7"/>
  <path d="M -65.67 72.22 Q -66.94 60.34 -54.54 58.76 Q -42.13 57.18 -32.97 57.09 Q -23.82 57 -12.67 59.64 Q -1.52 62.27 8.61 62.25 Q 18.75 62.23 29.28 60.46 Q 39.82 58.7 51.93 60.71 Q 64.04 62.72 64.45 71.48 Q 64.85 80.23 64.25 90.89 Q 63.65 101.54 52.19 103.02 Q 40.73 104.5 30.61 102.87 Q 20.49 101.23 9.47 102.24 Q -1.55 103.25 -12.78 102.08 Q -24.02 100.92 -32.82 101.7 Q -41.63 102.49 -52.54 103.16 Q -63.45 103.82 -63.93 93.96 Q -64.4 84.09 -65.67 72.22 Z" transform="matrix(1 0 0 1 0 0)" fill="none" stroke="#33241B" stroke-width="6" stroke-linejoin="round" stroke-linecap="round"/>
  <path d="M 44.22 80.78 Q 49.09 84.07 48.42 86.53 Q 47.75 88.98 43.49 92.15 Q 39.22 95.31 38.87 90.63 Q 38.53 85.95 31.81 84.85 Q 25.08 83.75 28.04 79.24 Q 30.99 74.74 30.84 73.23 Q 30.69 71.72 33.79 73.21 Q 36.89 74.7 38.12 76.09 Q 39.35 77.49 44.22 80.78 Z" transform="matrix(1 0 0 1 -3.75 4.32)" fill="#6DD47E"/>
  <path d="M 45.27 79.24 Q 45.39 84.05 44.85 84.62 Q 44.31 85.19 42.47 89.53 Q 40.64 93.86 38.57 91.11 Q 36.49 88.36 32.33 86.6 Q 28.17 84.84 28.31 82.96 Q 28.45 81.08 29.47 78.58 Q 30.49 76.07 34.7 73.97 Q 38.91 71.87 42.02 73.15 Q 45.14 74.43 45.27 79.24 Z" transform="matrix(1 0 0 1 0 0)" fill="none" stroke="#33241B" stroke-width="5" stroke-linejoin="round" stroke-linecap="round"/>
  <path d="M -46.32 81.69 L 8.12 80.96" transform="matrix(1 0 0 1 0 0)" fill="none" stroke="#33241B" stroke-width="5" stroke-linejoin="round" stroke-linecap="round"/>
  <path d="M -56.82 107.43 L -57.81 149.49" transform="matrix(1 0 0 1 0 0)" fill="none" stroke="#33241B" stroke-width="9" stroke-linejoin="round" stroke-linecap="round"/>
  <path d="M 56.95 111.45 L 56.94 152.98" transform="matrix(1 0 0 1 0 0)" fill="none" stroke="#33241B" stroke-width="9" stroke-linejoin="round" stroke-linecap="round"/>
  <path d="M -13.65 -141.73 Q -13.27 -139.6 -12.9 -138.05 Q -12.54 -136.51 -15.66 -134.64 Q -18.77 -132.78 -21.09 -133.71 Q -23.41 -134.64 -23.41 -137.52 Q -23.41 -140.39 -22.72 -142.55 Q -22.04 -144.71 -20.19 -145.2 Q -18.33 -145.69 -16.19 -144.77 Q -14.04 -143.86 -13.65 -141.73 Z" transform="matrix(1 0 0 1 -2.61 -5.28)" fill="#33241B"/>
  <path d="M -13.33 -142.81 Q -13.46 -140.29 -13.16 -137.31 Q -12.86 -134.34 -15.73 -133.66 Q -18.6 -132.97 -20.61 -134.76 Q -22.61 -136.54 -23.77 -138.56 Q -24.93 -140.58 -23.76 -142.69 Q -22.58 -144.79 -20.88 -144.74 Q -19.19 -144.68 -16.2 -145 Q -13.21 -145.33 -13.33 -142.81 Z" transform="matrix(1 0 0 1 0 0)" fill="none" stroke="#33241B" stroke-width="3" stroke-linejoin="round" stroke-linecap="round"/>
  <path d="M 24.01 -141.53 Q 24.24 -139.32 23.24 -136.93 Q 22.24 -134.53 20.83 -133.7 Q 19.43 -132.87 16.51 -134.44 Q 13.59 -136.01 12.96 -138.55 Q 12.34 -141.08 12.66 -143.3 Q 12.98 -145.53 15.25 -145.88 Q 17.51 -146.24 20.64 -144.99 Q 23.77 -143.73 24.01 -141.53 Z" transform="matrix(1 0 0 1 5.24 -1.7)" fill="#33241B"/>
  <path d="M 24.21 -142.29 Q 24.57 -139.99 24.37 -138.05 Q 24.16 -136.11 21.18 -135.04 Q 18.2 -133.98 16.03 -135.32 Q 13.87 -136.66 13.94 -138.47 Q 14.01 -140.28 13.97 -142.51 Q 13.94 -144.73 16.5 -145.39 Q 19.06 -146.05 21.45 -145.32 Q 23.84 -144.6 24.21 -142.29 Z" transform="matrix(1 0 0 1 0 0)" fill="none" stroke="#33241B" stroke-width="3" stroke-linejoin="round" stroke-linecap="round"/>
  <path d="M -18.05 -122.74 Q -10.45 -116.25 -7.39 -114.54 Q -4.33 -112.82 -2.41 -111.28 Q -0.49 -109.73 2.12 -110.5 Q 4.74 -111.27 7.58 -113.04 Q 10.43 -114.81 13.59 -118.03 L 16.75 -121.25" transform="matrix(1 0 0 1 0 0)" fill="none" stroke="#33241B" stroke-width="5.1" stroke-linejoin="round" stroke-linecap="round"/>
  <path d="M -28.46 -132.36 Q -24.96 -130.35 -24.55 -127.54 Q -24.13 -124.72 -31.12 -122.63 Q -38.11 -120.54 -40.64 -120.51 Q -43.17 -120.48 -41.42 -125.66 Q -39.66 -130.84 -39.64 -131.18 Q -39.61 -131.53 -34.58 -135.05 Q -29.54 -138.58 -30.75 -136.47 Q -31.96 -134.36 -28.46 -132.36 Z" transform="matrix(1 0 0 1 5.05 0.72)" fill="#FF9FB2"/>
  <path d="M 41.65 -131.99 Q 40.99 -129.53 37.68 -126.74 Q 34.37 -123.95 34.54 -123.72 Q 34.72 -123.49 29.69 -121.34 Q 24.67 -119.18 26.09 -120.6 Q 27.51 -122.03 26.96 -125.82 Q 26.41 -129.62 30.19 -131.64 Q 33.97 -133.66 38.14 -134.06 Q 42.31 -134.46 41.65 -131.99 Z" transform="matrix(1 0 0 1 0.44 -4.28)" fill="#FF9FB2"/>
</svg>
